<svg xmlns="http://www.w3.org/2000/svg" viewBox="0 0 512 512" role="img" aria-labelledby="title desc">
  <title id="title">Javis Maid Avatar</title>
  <desc id="desc">A polished vector portrait avatar for Javis, shown as a calm cartoon maid steward with a teal ribbon and subtle home server motif.</desc>
  <defs>
    <linearGradient id="bg" x1="74" y1="42" x2="436" y2="470" gradientUnits="userSpaceOnUse">
      <stop offset="0" stop-color="#18363a"/>
      <stop offset=".52" stop-color="#0d2228"/>
      <stop offset="1" stop-color="#05080c"/>
    </linearGradient>
    <radialGradient id="halo" cx="50%" cy="38%" r="58%">
      <stop offset="0" stop-color="#3bc6cf" stop-opacity=".30"/>
      <stop offset=".65" stop-color="#1b5a63" stop-opacity=".13"/>
      <stop offset="1" stop-color="#0b171c" stop-opacity="0"/>
    </radialGradient>
    <linearGradient id="skin" x1="190" y1="154" x2="318" y2="348" gradientUnits="userSpaceOnUse">
      <stop offset="0" stop-color="#ffe4d0"/>
      <stop offset=".72" stop-color="#f2b895"/>
      <stop offset="1" stop-color="#d98f70"/>
    </linearGradient>
    <linearGradient id="hair" x1="152" y1="118" x2="360" y2="330" gradientUnits="userSpaceOnUse">
      <stop offset="0" stop-color="#2b2425"/>
      <stop offset=".48" stop-color="#151214"/>
      <stop offset="1" stop-color="#060607"/>
    </linearGradient>
    <linearGradient id="teal" x1="170" y1="346" x2="342" y2="428" gradientUnits="userSpaceOnUse">
      <stop offset="0" stop-color="#155f68"/>
      <stop offset=".62" stop-color="#0b3c47"/>
      <stop offset="1" stop-color="#061b24"/>
    </linearGradient>
    <linearGradient id="whiteCloth" x1="184" y1="102" x2="338" y2="458" gradientUnits="userSpaceOnUse">
      <stop offset="0" stop-color="#fffdf7"/>
      <stop offset="1" stop-color="#d9d0c9"/>
    </linearGradient>
    <filter id="shadow" x="-20%" y="-20%" width="140%" height="145%">
      <feDropShadow dx="0" dy="15" stdDeviation="15" flood-color="#020507" flood-opacity=".45"/>
    </filter>
  </defs>

  <rect width="512" height="512" rx="108" fill="url(#bg)"/>
  <rect width="512" height="512" rx="108" fill="url(#halo)"/>
  <circle cx="256" cy="251" r="206" fill="none" stroke="#235c64" stroke-width="2" opacity=".50"/>
  <path d="M94 380c44 34 97 52 159 52 64 0 120-20 166-59" fill="none" stroke="#e3c48b" stroke-width="2" opacity=".34"/>

  <g filter="url(#shadow)">
    <path d="M137 448c15-74 58-111 129-111s114 37 129 111H137Z" fill="#111317"/>
    <path d="M172 448c10-54 42-82 94-82s84 28 94 82H172Z" fill="url(#whiteCloth)"/>
    <path d="M157 448c12-61 48-95 109-95s97 34 109 95h-39c-8-36-30-56-70-56s-62 20-70 56h-39Z" fill="#0a1418"/>
    <path d="M202 360l64 53 64-53" fill="none" stroke="#d6c6ba" stroke-width="7" stroke-linecap="round" stroke-linejoin="round"/>

    <path d="M223 372c22 4 35 15 39 32-19 7-43 18-72 32-8-27 2-48 33-64Z" fill="url(#teal)"/>
    <path d="M309 372c-22 4-35 15-39 32 19 7 43 18 72 32 8-27-2-48-33-64Z" fill="url(#teal)"/>
    <circle cx="266" cy="404" r="18" fill="#0a3340" stroke="#d7b56d" stroke-width="5"/>
    <circle cx="266" cy="404" r="8" fill="#42d5dd"/>

    <path d="M164 226c-8-82 42-137 101-137s108 55 100 137c18 20 26 49 20 81-10 55-52 84-119 84s-109-29-119-84c-6-32 2-61 17-81Z" fill="url(#hair)"/>
    <path d="M176 224c0-66 33-108 90-108s90 42 90 108c0 77-38 121-90 121s-90-44-90-121Z" fill="url(#skin)"/>
    <path d="M178 215c40-8 75-32 102-72 24 40 48 62 72 66-8-71-40-108-94-108-49 0-80 39-80 114Z" fill="url(#hair)"/>
    <path d="M175 222c15-20 29-52 42-97-38 12-60 44-65 96 7 2 15 2 23 1Z" fill="#111113"/>
    <path d="M351 217c-23-13-43-39-61-76 45 10 72 48 72 106-5-13-8-23-11-30Z" fill="#0c0b0d"/>
    <path d="M186 263c-21-2-30 11-25 29 4 15 17 20 32 16" fill="#e9aa86"/>
    <path d="M346 263c21-2 30 11 25 29-4 15-17 20-32 16" fill="#e9aa86"/>

    <g id="maid-headband">
      <path d="M165 151c54-50 138-52 196-2" fill="none" stroke="#f9f3ec" stroke-width="18" stroke-linecap="round"/>
      <path d="M174 143l17-35 18 29 22-42 18 36 25-39 19 39 22-42 18 40 18-30 18 40c-58-30-113-30-195 4Z" fill="#fffaf2"/>
      <path d="M177 146c59-34 118-35 177-2" fill="none" stroke="#d5c9bf" stroke-width="3" opacity=".62"/>
    </g>

    <path d="M213 251c11-9 25-9 37-1" fill="none" stroke="#3f2723" stroke-width="7" stroke-linecap="round"/>
    <path d="M287 250c12-8 26-8 37 1" fill="none" stroke="#3f2723" stroke-width="7" stroke-linecap="round"/>
    <ellipse cx="229" cy="269" rx="16" ry="20" fill="#161014"/>
    <ellipse cx="303" cy="269" rx="16" ry="20" fill="#161014"/>
    <circle cx="235" cy="260" r="5" fill="#fff7ee"/>
    <circle cx="309" cy="260" r="5" fill="#fff7ee"/>
    <path d="M264 272c3 23-3 38-18 45 13 7 27 7 40 0" fill="none" stroke="#c77f67" stroke-width="5" stroke-linecap="round" stroke-linejoin="round" opacity=".75"/>
    <path d="M238 329c17 16 44 16 61 0" fill="none" stroke="#84423d" stroke-width="6" stroke-linecap="round"/>
    <path d="M215 304c-11 5-20 5-29 0" fill="none" stroke="#ef9a96" stroke-width="5" stroke-linecap="round" opacity=".46"/>
    <path d="M321 304c11 5 20 5 29 0" fill="none" stroke="#ef9a96" stroke-width="5" stroke-linecap="round" opacity=".46"/>

    <path d="M136 222c8 73 34 124 79 154-32-5-57-20-75-46-21-30-29-68-24-113 11 8 19 9 20 5Z" fill="#09090b"/>
    <path d="M376 222c-8 73-34 124-79 154 32-5 57-20 75-46 21-30 29-68 24-113-11 8-19 9-20 5Z" fill="#09090b"/>

    <g id="server-pin" transform="translate(338 316)">
      <rect x="0" y="0" width="46" height="58" rx="12" fill="#08161a" stroke="#d7b56d" stroke-width="4"/>
      <circle cx="15" cy="17" r="4" fill="#42d5dd"/>
      <circle cx="15" cy="33" r="4" fill="#42d5dd"/>
      <path d="M27 17h9M27 33h9M14 46h22" stroke="#fff8ee" stroke-width="4" stroke-linecap="round"/>
    </g>
  </g>

  <path d="M74 106c34-35 76-57 126-67" fill="none" stroke="#3bd0d8" stroke-width="5" stroke-linecap="round" opacity=".55"/>
  <path d="M310 476c51-8 95-29 131-65" fill="none" stroke="#3bd0d8" stroke-width="5" stroke-linecap="round" opacity=".42"/>
</svg>
