<svg xmlns="http://www.w3.org/2000/svg" viewBox="0 0 512 512" role="img" aria-labelledby="title desc">
  <title id="title">Javis Bear Maid Avatar</title>
  <desc id="desc">A vector avatar badge for Javis Bear, combining a bear steward mascot, maid headband, teal bow, and home server signal.</desc>
  <defs>
    <linearGradient id="bg" x1="88" y1="48" x2="424" y2="464" gradientUnits="userSpaceOnUse">
      <stop offset="0" stop-color="#112e34"/>
      <stop offset=".56" stop-color="#0c1e24"/>
      <stop offset="1" stop-color="#05090d"/>
    </linearGradient>
    <linearGradient id="fur" x1="150" y1="120" x2="362" y2="398" gradientUnits="userSpaceOnUse">
      <stop offset="0" stop-color="#ffe0c4"/>
      <stop offset=".58" stop-color="#d6915f"/>
      <stop offset="1" stop-color="#7b4329"/>
    </linearGradient>
    <linearGradient id="muzzle" x1="198" y1="236" x2="314" y2="342" gradientUnits="userSpaceOnUse">
      <stop offset="0" stop-color="#fff1df"/>
      <stop offset="1" stop-color="#f1be92"/>
    </linearGradient>
    <linearGradient id="teal" x1="164" y1="310" x2="348" y2="422" gradientUnits="userSpaceOnUse">
      <stop offset="0" stop-color="#0f5964"/>
      <stop offset="1" stop-color="#062b35"/>
    </linearGradient>
    <filter id="softShadow" x="-20%" y="-20%" width="140%" height="145%">
      <feDropShadow dx="0" dy="14" stdDeviation="14" flood-color="#020507" flood-opacity=".46"/>
    </filter>
  </defs>

  <rect width="512" height="512" rx="112" fill="url(#bg)"/>
  <circle cx="256" cy="252" r="198" fill="none" stroke="#1b5962" stroke-width="2" opacity=".55"/>
  <path d="M100 365c56 44 113 66 171 66s108-18 153-54" fill="none" stroke="#f3d7a5" stroke-width="2" opacity=".38"/>

  <g filter="url(#softShadow)">
    <path d="M137 184c-23-55 8-102 57-86 18 6 32 19 43 38h38c11-19 25-32 43-38 49-16 80 31 57 86 28 35 43 76 43 119 0 90-70 147-162 147s-162-57-162-147c0-43 15-84 43-119Z" fill="#2a1612"/>
    <path d="M153 181c-15-38 8-70 42-58 18 7 29 23 37 44h48c8-21 19-37 37-44 34-12 57 20 42 58 25 31 39 70 39 112 0 82-61 134-142 134s-142-52-142-134c0-42 14-81 39-112Z" fill="url(#fur)"/>
    <path d="M181 153c9-14 22-19 36-12 9 5 15 14 20 28-25 0-43-5-56-16Z" fill="#f3bf93" opacity=".72"/>
    <path d="M331 153c-9-14-22-19-36-12-9 5-15 14-20 28 25 0 43-5 56-16Z" fill="#f3bf93" opacity=".72"/>

    <path d="M159 184c26-35 59-55 97-55s71 20 97 55c-17-8-38-13-62-14l-35 28-35-28c-24 1-45 6-62 14Z" fill="#151111" opacity=".5"/>

    <g id="headband">
      <path d="M164 150c55-38 129-38 184 0" fill="none" stroke="#f9f3eb" stroke-width="18" stroke-linecap="round"/>
      <path d="M173 143l16-33 18 29 22-39 17 35 23-35 17 35 22-39 18 43 17-30 16 34c-55-26-112-26-186 0Z" fill="#fff8ef"/>
      <path d="M173 143c58-31 115-31 170 0" fill="none" stroke="#d8cdc3" stroke-width="3" opacity=".58"/>
    </g>

    <path d="M165 246c0-66 37-105 91-105s91 39 91 105c0 75-39 118-91 118s-91-43-91-118Z" fill="#e1a06d"/>
    <path d="M177 249c0-57 32-92 79-92s79 35 79 92c0 65-34 103-79 103s-79-38-79-103Z" fill="url(#fur)"/>
    <path d="M196 280c10-31 31-49 60-49s50 18 60 49c8 27-13 61-60 61s-68-34-60-61Z" fill="url(#muzzle)"/>

    <ellipse cx="218" cy="246" rx="18" ry="22" fill="#141014"/>
    <ellipse cx="294" cy="246" rx="18" ry="22" fill="#141014"/>
    <circle cx="224" cy="238" r="6" fill="#fff7ea"/>
    <circle cx="300" cy="238" r="6" fill="#fff7ea"/>
    <path d="M204 223c10-9 25-11 38-3" fill="none" stroke="#4e2a20" stroke-width="7" stroke-linecap="round"/>
    <path d="M270 220c13-8 28-6 38 3" fill="none" stroke="#4e2a20" stroke-width="7" stroke-linecap="round"/>

    <path d="M240 282c5-8 27-8 32 0-2 12-8 18-16 18s-14-6-16-18Z" fill="#2a1514"/>
    <path d="M229 310c16 18 38 18 54 0" fill="none" stroke="#5a2e26" stroke-width="7" stroke-linecap="round"/>
    <path d="M256 300v13" stroke="#5a2e26" stroke-width="6" stroke-linecap="round"/>

    <path d="M134 448c16-70 61-105 122-105s106 35 122 105H134Z" fill="#111317"/>
    <path d="M174 448c10-55 40-82 82-82s72 27 82 82H174Z" fill="#f8f2eb"/>
    <path d="M153 448c14-63 50-94 103-94s89 31 103 94h-31c-9-43-33-64-72-64s-63 21-72 64h-31Z" fill="#0d171b"/>
    <path d="M175 368l81 42 81-42" fill="none" stroke="#d9c8b7" stroke-width="7" stroke-linecap="round" stroke-linejoin="round"/>

    <path d="M219 368c21 4 34 14 37 31-17 5-39 13-66 24-7-26 3-45 29-55Z" fill="url(#teal)"/>
    <path d="M293 368c-21 4-34 14-37 31 17 5 39 13 66 24 7-26-3-45-29-55Z" fill="url(#teal)"/>
    <circle cx="256" cy="399" r="18" fill="#0b3139" stroke="#d8b778" stroke-width="5"/>
    <circle cx="256" cy="399" r="8" fill="#38c6d0"/>

    <g id="server-signal" transform="translate(321 289)">
      <rect x="0" y="0" width="54" height="74" rx="12" fill="#0b1519" stroke="#d8b778" stroke-width="4"/>
      <circle cx="16" cy="19" r="4" fill="#37c4cf"/>
      <circle cx="16" cy="37" r="4" fill="#37c4cf"/>
      <path d="M29 19h12M29 37h12M15 56h25" stroke="#f8f2eb" stroke-width="4" stroke-linecap="round"/>
      <path d="M42-11c13 11 13 25 0 36M51-22c22 20 22 47 0 67" fill="none" stroke="#37c4cf" stroke-width="5" stroke-linecap="round" opacity=".9"/>
    </g>
  </g>

  <path d="M80 96c36-34 78-54 126-61" fill="none" stroke="#37c4cf" stroke-width="5" stroke-linecap="round" opacity=".55"/>
  <path d="M306 477c48-7 90-27 126-61" fill="none" stroke="#37c4cf" stroke-width="5" stroke-linecap="round" opacity=".45"/>
</svg>
